<svg width="394" height="449" viewBox="0 0 394 449" fill="none" xmlns="http://www.w3.org/2000/svg">
<path d="M277.694 375.793C288.273 375.704 296.777 367.136 296.688 356.658C296.599 346.179 287.951 337.758 277.372 337.847C266.793 337.937 258.289 346.505 258.378 356.983C258.467 367.462 267.115 375.883 277.694 375.793Z" fill="#29282A"/>
<path d="M237.231 376.137C247.811 376.047 256.314 367.48 256.225 357.001C256.136 346.523 247.488 338.101 236.909 338.191C226.33 338.281 217.826 346.848 217.915 357.327C218.004 367.805 226.652 376.227 237.231 376.137Z" fill="#29282A"/>
<path d="M196.983 376.479C207.563 376.389 216.067 367.822 215.978 357.343C215.889 346.865 207.24 338.443 196.661 338.533C186.082 338.623 177.578 347.19 177.667 357.669C177.756 368.147 186.404 376.569 196.983 376.479Z" fill="#29282A"/>
<path d="M238.233 337.591C248.812 337.501 257.316 328.934 257.227 318.455C257.138 307.977 248.49 299.555 237.911 299.645C227.331 299.735 218.827 308.302 218.916 318.781C219.005 329.259 227.654 337.681 238.233 337.591Z" fill="#29282A"/>
<path d="M238.065 317.765C241.631 317.735 244.497 314.847 244.467 311.315C244.437 307.783 241.522 304.944 237.956 304.974C234.39 305.005 231.523 307.892 231.553 311.425C231.583 314.957 234.499 317.795 238.065 317.765Z" fill="white"/>
<path d="M277.533 356.82C281.099 356.79 283.966 353.902 283.936 350.37C283.906 346.838 280.99 343.999 277.424 344.03C273.858 344.06 270.992 346.948 271.022 350.48C271.052 354.012 273.967 356.851 277.533 356.82Z" fill="white"/>
<path d="M237.07 357.164C240.636 357.134 243.503 354.246 243.473 350.714C243.443 347.182 240.528 344.343 236.961 344.373C233.395 344.403 230.529 347.291 230.559 350.823C230.589 354.356 233.504 357.194 237.07 357.164Z" fill="white"/>
<path d="M196.822 357.506C200.388 357.476 203.255 354.588 203.225 351.056C203.195 347.524 200.28 344.685 196.714 344.715C193.148 344.745 190.281 347.633 190.311 351.165C190.341 354.697 193.256 357.536 196.822 357.506Z" fill="white"/>
<path d="M156.52 376.823C167.1 376.733 175.604 368.165 175.515 357.687C175.426 347.208 166.777 338.787 156.198 338.877C145.619 338.966 137.115 347.534 137.204 358.012C137.293 368.491 145.941 376.912 156.52 376.823Z" fill="#29282A"/>
<path d="M116.057 377.166C126.637 377.076 135.141 368.509 135.052 358.031C134.963 347.552 126.314 339.13 115.735 339.22C105.156 339.31 96.6519 347.877 96.7409 358.356C96.8299 368.834 105.478 377.256 116.057 377.166Z" fill="#29282A"/>
<path d="M157.522 338.276C168.101 338.187 176.605 329.619 176.516 319.141C176.427 308.662 167.779 300.24 157.2 300.33C146.621 300.42 138.117 308.988 138.206 319.466C138.295 329.945 146.943 338.366 157.522 338.276Z" fill="#29282A"/>
<path d="M196.695 335.109C207.274 335.019 215.778 326.452 215.689 315.973C215.6 305.495 206.952 297.073 196.372 297.163C185.793 297.253 177.289 305.82 177.378 316.298C177.467 326.777 186.115 335.199 196.695 335.109Z" fill="#29282A"/>
<path d="M157.354 318.451C160.92 318.42 163.786 315.532 163.756 312C163.726 308.468 160.811 305.629 157.245 305.66C153.679 305.69 150.813 308.578 150.843 312.11C150.873 315.642 153.788 318.481 157.354 318.451Z" fill="white"/>
<path d="M197.817 318.107C201.383 318.077 204.249 315.189 204.219 311.657C204.189 308.125 201.274 305.286 197.708 305.316C194.142 305.346 191.276 308.234 191.306 311.766C191.336 315.298 194.251 318.137 197.817 318.107Z" fill="white"/>
<path d="M156.359 357.85C159.925 357.819 162.792 354.931 162.762 351.399C162.732 347.867 159.817 345.028 156.251 345.059C152.685 345.089 149.818 347.977 149.848 351.509C149.878 355.041 152.793 357.88 156.359 357.85Z" fill="white"/>
<path d="M115.896 358.193C119.462 358.163 122.329 355.275 122.299 351.743C122.269 348.211 119.354 345.372 115.788 345.402C112.222 345.433 109.355 348.321 109.385 351.853C109.415 355.385 112.33 358.224 115.896 358.193Z" fill="white"/>
<path d="M176.404 413.889C186.983 413.799 195.487 405.232 195.398 394.754C195.309 384.275 186.66 375.853 176.081 375.943C165.502 376.033 156.998 384.6 157.087 395.079C157.176 405.557 165.824 413.979 176.404 413.889Z" fill="#29282A"/>
<path d="M216.651 413.547C227.231 413.458 235.735 404.89 235.646 394.412C235.557 383.933 226.908 375.511 216.329 375.601C205.75 375.691 197.246 384.259 197.335 394.737C197.424 405.216 206.072 413.637 216.651 413.547Z" fill="#29282A"/>
<path d="M257.114 413.204C267.694 413.114 276.197 404.547 276.108 394.068C276.019 383.59 267.371 375.168 256.792 375.258C246.213 375.348 237.709 383.915 237.798 394.393C237.887 404.872 246.535 413.294 257.114 413.204Z" fill="#29282A"/>
<path d="M297.577 412.86C308.157 412.77 316.661 404.203 316.572 393.724C316.483 383.246 307.834 374.824 297.255 374.914C286.676 375.004 278.172 383.571 278.261 394.05C278.35 404.528 286.998 412.95 297.577 412.86Z" fill="#29282A"/>
<path d="M176.244 395.129C179.81 395.099 182.677 392.211 182.647 388.679C182.617 385.147 179.702 382.308 176.136 382.338C172.57 382.369 169.703 385.257 169.733 388.789C169.763 392.321 172.678 395.16 176.244 395.129Z" fill="white"/>
<path d="M216.492 394.788C220.058 394.757 222.925 391.869 222.895 388.337C222.865 384.805 219.95 381.966 216.383 381.997C212.817 382.027 209.951 384.915 209.981 388.447C210.011 391.979 212.926 394.818 216.492 394.788Z" fill="white"/>
<path d="M95.4775 414.577C106.057 414.487 114.561 405.919 114.472 395.441C114.383 384.962 105.734 376.541 95.1552 376.63C84.576 376.72 76.0721 385.288 76.1611 395.766C76.2501 406.245 84.8983 414.666 95.4775 414.577Z" fill="#29282A"/>
<path d="M135.941 414.233C146.52 414.143 155.024 405.576 154.935 395.097C154.846 384.619 146.198 376.197 135.618 376.287C125.039 376.377 116.535 384.944 116.624 395.423C116.713 405.901 125.361 414.323 135.941 414.233Z" fill="#29282A"/>
<path d="M95.3181 395.817C98.8841 395.786 101.751 392.899 101.721 389.366C101.691 385.834 98.7755 382.996 95.2095 383.026C91.6435 383.056 88.7769 385.944 88.8069 389.476C88.8369 393.008 91.7521 395.847 95.3181 395.817Z" fill="white"/>
<path d="M135.781 395.473C139.347 395.443 142.214 392.555 142.184 389.023C142.154 385.491 139.239 382.652 135.673 382.682C132.107 382.712 129.24 385.6 129.27 389.132C129.3 392.665 132.215 395.503 135.781 395.473Z" fill="white"/>
<path d="M256.955 394.444C260.521 394.414 263.388 391.526 263.358 387.994C263.328 384.461 260.413 381.623 256.846 381.653C253.28 381.683 250.414 384.571 250.444 388.103C250.474 391.635 253.389 394.474 256.955 394.444Z" fill="white"/>
<path d="M297.418 394.1C300.984 394.07 303.851 391.182 303.821 387.65C303.791 384.118 300.875 381.279 297.309 381.309C293.743 381.34 290.877 384.228 290.907 387.76C290.937 391.292 293.852 394.131 297.418 394.1Z" fill="white"/>
<path opacity="0.11" d="M310.49 439.429L88.3741 441.316C71.8015 441.456 57.9236 429.422 55.6337 413.239L2 3.29219L389.627 1.77405e-07L342.747 410.587C340.948 426.805 327.063 439.288 310.49 439.429Z" fill="white"/>
<path d="M85.1592 320.957L78.9749 321.63C72.2011 322.308 66.2668 317.425 65.3256 310.338L42.1691 106.327C41.5226 99.2375 46.1887 93.026 52.9601 92.0397L59.1443 91.3672C65.9181 90.6895 71.8525 95.572 72.7937 102.659L95.9501 306.67C96.5991 314.068 91.933 320.279 85.1592 320.957Z" fill="white"/>
<path d="M89.1373 375.832C99.5548 375.739 107.929 366.824 107.841 355.921C107.754 345.018 99.2375 336.255 88.82 336.349C78.4025 336.442 70.0284 345.357 70.116 356.26C70.2036 367.163 78.7198 375.926 89.1373 375.832Z" fill="white"/>
</svg>
