<svg width="428" height="807" viewBox="0 0 428 807" fill="none" xmlns="http://www.w3.org/2000/svg">
<path d="M388.681 413.868L394.078 365L34 368.058L40.2257 416.827L388.681 413.868Z" fill="#F4FFE3"/>
<path d="M191.553 639.292L159.344 634.413C153.702 633.559 149.523 628.534 150.15 623.358L220.224 45.4292C220.982 39.1755 227.252 34.8546 234.07 35.8873L262.047 40.1247C268.865 41.1574 273.88 47.1875 273.122 53.4412L203.048 631.37C202.421 636.546 197.196 640.146 191.553 639.292Z" fill="#BBD299"/>
<path opacity="0.4" d="M212.921 148.645C105.952 149.554 19.7297 236.204 20.6313 342.368L408.258 339.076C407.572 232.91 320.105 147.735 212.921 148.645Z" fill="white"/>
<path d="M173.173 213.98C173.388 213.978 173.388 213.978 173.604 213.976C181.137 213.912 182.554 203.454 175.22 201.597C167.671 199.743 159.914 198.743 151.735 198.812C106.968 199.192 70.2232 231.91 63.9114 274.39C62.8969 281.647 68.5489 288.208 75.8667 288.146C81.2475 288.1 85.9518 284.436 87.4149 279.307C97.8595 241.909 132.064 214.329 173.173 213.98Z" fill="white"/>
<path d="M70.0921 317.829C76.7486 317.773 82.0996 312.382 82.0436 305.789C81.9876 299.195 76.5459 293.896 69.8893 293.953C63.2327 294.009 57.8819 299.4 57.9379 305.993C57.9939 312.587 63.4355 317.886 70.0921 317.829Z" fill="white"/>
<path opacity="0.4" d="M417.672 364.668L14.5484 368.091C8.73718 368.141 4.17744 363.489 4.13036 357.947L4.08691 352.83C4.03802 347.074 8.73514 342.557 14.3311 342.51L417.239 339.088C423.051 339.038 427.61 343.69 427.657 349.233L427.701 354.349C427.963 359.89 423.268 364.62 417.672 364.668Z" fill="#E6E7E8"/>
</svg>
