<svg width="1440" height="109" viewBox="0 0 1440 109" fill="none" xmlns="http://www.w3.org/2000/svg">
<path d="M-49.5303 106H-53.5303V110H-49.5303V106ZM-49.5303 0.879997V-3.12H-53.5303V0.879997H-49.5303ZM-12.3783 0.879997L-8.65118 -0.572124L-9.64386 -3.12H-12.3783V0.879997ZM9.22174 56.32L5.49463 57.7721L6.4873 60.32H9.22174V56.32ZM12.1017 56.32V60.32H14.8428L15.8321 57.7637L12.1017 56.32ZM33.5577 0.879997V-3.12H30.8167L29.8273 -0.563705L33.5577 0.879997ZM71.4297 0.879997H75.4297V-3.12H71.4297V0.879997ZM71.4297 106V110H75.4297V106H71.4297ZM44.9337 106H40.9337V110H44.9337V106ZM44.9337 16.288L45.2089 12.2975L40.9337 12.0026V16.288H44.9337ZM49.1097 16.576L52.8279 18.0507L54.8462 12.9621L49.3849 12.5855L49.1097 16.576ZM22.0377 84.832V88.832H24.7544L25.7559 86.3067L22.0377 84.832ZM-2.29828 84.832L-6.01379 86.3135L-5.00958 88.832H-2.29828V84.832ZM-29.5143 16.576L-29.7718 12.5843L-35.2707 12.9391L-33.2298 18.0575L-29.5143 16.576ZM-25.0503 16.288H-21.0503V12.0216L-25.3078 12.2963L-25.0503 16.288ZM-25.0503 106V110H-21.0503V106H-25.0503ZM-45.5303 106V0.879997H-53.5303V106H-45.5303ZM-49.5303 4.88H-12.3783V-3.12H-49.5303V4.88ZM-16.1054 2.33212L5.49463 57.7721L12.9489 54.8679L-8.65118 -0.572124L-16.1054 2.33212ZM9.22174 60.32H12.1017V52.32H9.22174V60.32ZM15.8321 57.7637L37.2881 2.3237L29.8273 -0.563705L8.37134 54.8763L15.8321 57.7637ZM33.5577 4.88H71.4297V-3.12H33.5577V4.88ZM67.4297 0.879997V106H75.4297V0.879997H67.4297ZM71.4297 102H44.9337V110H71.4297V102ZM48.9337 106V16.288H40.9337V106H48.9337ZM44.6585 20.2785L48.8345 20.5665L49.3849 12.5855L45.2089 12.2975L44.6585 20.2785ZM45.3915 15.1013L18.3195 83.3573L25.7559 86.3067L52.8279 18.0507L45.3915 15.1013ZM22.0377 80.832H-2.29828V88.832H22.0377V80.832ZM1.41724 83.3505L-25.7988 15.0945L-33.2298 18.0575L-6.01379 86.3135L1.41724 83.3505ZM-29.2568 20.5677L-24.7927 20.2797L-25.3078 12.2963L-29.7718 12.5843L-29.2568 20.5677ZM-29.0503 16.288V106H-21.0503V16.288H-29.0503ZM-25.0503 102H-49.5303V110H-25.0503V102ZM95.6622 106H91.6622V110H95.6622V106ZM95.6622 0.879997V-3.12H91.6622V0.879997H95.6622ZM121.582 0.879997H125.582V-3.12H121.582V0.879997ZM121.582 106V110H125.582V106H121.582ZM118.702 106H114.702V110H118.702V106ZM118.702 84.112V80.112H114.702V84.112H118.702ZM163.054 84.112H167.054V80.112H163.054V84.112ZM163.054 106V110H167.054V106H163.054ZM118.702 63.52H114.702V67.52H118.702V63.52ZM118.702 41.632V37.632H114.702V41.632H118.702ZM160.03 41.632H164.03V37.632H160.03V41.632ZM160.03 63.52V67.52H164.03V63.52H160.03ZM118.702 22.768H114.702V26.768H118.702V22.768ZM118.702 0.879997V-3.12H114.702V0.879997H118.702ZM162.19 0.879997H166.19V-3.12H162.19V0.879997ZM162.19 22.768V26.768H166.19V22.768H162.19ZM99.6622 106V0.879997H91.6622V106H99.6622ZM95.6622 4.88H121.582V-3.12H95.6622V4.88ZM117.582 0.879997V106H125.582V0.879997H117.582ZM121.582 102H95.6622V110H121.582V102ZM122.702 106V84.112H114.702V106H122.702ZM118.702 88.112H163.054V80.112H118.702V88.112ZM159.054 84.112V106H167.054V84.112H159.054ZM163.054 102H118.702V110H163.054V102ZM122.702 63.52V41.632H114.702V63.52H122.702ZM118.702 45.632H160.03V37.632H118.702V45.632ZM156.03 41.632V63.52H164.03V41.632H156.03ZM160.03 59.52H118.702V67.52H160.03V59.52ZM122.702 22.768V0.879997H114.702V22.768H122.702ZM118.702 4.88H162.19V-3.12H118.702V4.88ZM158.19 0.879997V22.768H166.19V0.879997H158.19ZM162.19 18.768H118.702V26.768H162.19V18.768ZM183.761 106H179.761V110H183.761V106ZM183.761 0.879997V-3.12H179.761V0.879997H183.761ZM227.681 0.879997L231.372 -0.661167L230.346 -3.12H227.681V0.879997ZM262.673 84.688L258.982 86.2292L260.008 88.688H262.673V84.688ZM267.713 84.688L270.389 87.6612L278.137 80.688H267.713V84.688ZM264.833 87.28H260.833V96.2614L267.509 90.2532L264.833 87.28ZM264.833 0.879997V-3.12H260.833V0.879997H264.833ZM289.889 0.879997H293.889V-3.12H289.889V0.879997ZM289.889 106V110H293.889V106H289.889ZM245.681 106L241.99 107.541L243.016 110H245.681V106ZM210.689 22.192L214.38 20.6508L213.354 18.192H210.689V22.192ZM205.649 22.192L202.973 19.2188L195.225 26.192H205.649V22.192ZM208.529 19.6H212.529V10.6185L205.853 16.6268L208.529 19.6ZM208.529 106V110H212.529V106H208.529ZM187.761 106V0.879997H179.761V106H187.761ZM183.761 4.88H227.681V-3.12H183.761V4.88ZM223.99 2.42116L258.982 86.2292L266.364 83.1468L231.372 -0.661167L223.99 2.42116ZM262.673 88.688H267.713V80.688H262.673V88.688ZM265.037 81.7148L262.157 84.3068L267.509 90.2532L270.389 87.6612L265.037 81.7148ZM268.833 87.28V0.879997H260.833V87.28H268.833ZM264.833 4.88H289.889V-3.12H264.833V4.88ZM285.889 0.879997V106H293.889V0.879997H285.889ZM289.889 102H245.681V110H289.889V102ZM249.372 104.459L214.38 20.6508L206.998 23.7332L241.99 107.541L249.372 104.459ZM210.689 18.192H205.649V26.192H210.689V18.192ZM208.325 25.1652L211.205 22.5732L205.853 16.6268L202.973 19.2188L208.325 25.1652ZM204.529 19.6V106H212.529V19.6H204.529ZM208.529 102H183.761V110H208.529V102ZM333.343 103.264L331.438 106.781L331.448 106.787L331.458 106.792L333.343 103.264ZM317.503 87.424L313.966 89.291L313.971 89.3013L313.977 89.3115L317.503 87.424ZM312.031 0.879997V-3.12H308.031V0.879997H312.031ZM338.815 0.879997H342.815V-3.12H338.815V0.879997ZM341.119 74.32L337.542 76.1089L337.564 76.153L337.587 76.1966L341.119 74.32ZM348.031 81.376L346.108 84.8832L348.031 81.376ZM369.919 81.376L367.996 77.8688L369.919 81.376ZM376.687 74.464L380.242 76.2986L380.253 76.2758L380.265 76.2529L376.687 74.464ZM378.991 0.879997V-3.12H374.991V0.879997H378.991ZM405.775 0.879997H409.775V-3.12H405.775V0.879997ZM400.303 87.424L396.766 85.557L396.761 85.5662L396.756 85.5754L400.303 87.424ZM384.463 103.264L382.578 99.7359L382.568 99.7413L382.558 99.7468L384.463 103.264ZM358.975 104.88C349.38 104.88 341.521 103.098 335.228 99.7359L331.458 106.792C339.182 110.918 348.41 112.88 358.975 112.88V104.88ZM335.248 99.7468C329.012 96.369 324.302 91.6501 321.03 85.5365L313.977 89.3115C318 96.8299 323.85 102.671 331.438 106.781L335.248 99.7468ZM321.041 85.557C317.752 79.3265 316.031 71.8329 316.031 62.944H308.031C308.031 72.8711 309.958 81.6975 313.966 89.291L321.041 85.557ZM316.031 62.944V0.879997H308.031V62.944H316.031ZM312.031 4.88H338.815V-3.12H312.031V4.88ZM334.815 0.879997V63.52H342.815V0.879997H334.815ZM334.815 63.52C334.815 68.145 335.677 72.3802 337.542 76.1089L344.697 72.5311C343.489 70.1158 342.815 67.151 342.815 63.52H334.815ZM337.587 76.1966C339.575 79.9392 342.43 82.8664 346.108 84.8832L349.955 77.8688C347.68 76.6216 345.927 74.8447 344.652 72.4434L337.587 76.1966ZM346.108 84.8832C349.813 86.915 354.162 87.824 358.975 87.824V79.824C355.148 79.824 352.202 79.101 349.955 77.8688L346.108 84.8832ZM358.975 87.824C363.788 87.824 368.138 86.915 371.843 84.8832L367.996 77.8688C365.749 79.101 362.802 79.824 358.975 79.824V87.824ZM371.843 84.8832C375.507 82.8739 378.335 79.9921 380.242 76.2986L373.133 72.6294C371.967 74.8879 370.284 76.6141 367.996 77.8688L371.843 84.8832ZM380.265 76.2529C382.135 72.5124 382.991 68.2248 382.991 63.52H374.991C374.991 67.2632 374.311 70.2716 373.109 72.6751L380.265 76.2529ZM382.991 63.52V0.879997H374.991V63.52H382.991ZM378.991 4.88H405.775V-3.12H378.991V4.88ZM401.775 0.879997V62.944H409.775V0.879997H401.775ZM401.775 62.944C401.775 71.8329 400.054 79.3265 396.766 85.557L403.841 89.291C407.849 81.6975 409.775 72.8711 409.775 62.944H401.775ZM396.756 85.5754C393.589 91.6518 388.901 96.358 382.578 99.7359L386.348 106.792C394.041 102.682 399.913 96.8282 403.85 89.2726L396.756 85.5754ZM382.558 99.7468C376.373 103.097 368.573 104.88 358.975 104.88V112.88C369.537 112.88 378.729 110.919 386.368 106.781L382.558 99.7468ZM454.82 76.768H450.82V80.768H454.82V76.768ZM454.82 53.44V49.44H450.82V53.44H454.82ZM517.892 53.44H521.892V49.44H517.892V53.44ZM517.892 76.768V80.768H521.892V76.768H517.892ZM458.82 76.768V53.44H450.82V76.768H458.82ZM454.82 57.44H517.892V49.44H454.82V57.44ZM513.892 53.44V76.768H521.892V53.44H513.892ZM517.892 72.768H454.82V80.768H517.892V72.768ZM568.848 106H564.848V110H568.848V106ZM568.848 0.879997V-3.12H564.848V0.879997H568.848ZM606 0.879997L609.728 -0.572124L608.735 -3.12H606V0.879997ZM627.6 56.32L623.873 57.7721L624.866 60.32H627.6V56.32ZM630.48 56.32V60.32H633.221L634.211 57.7637L630.48 56.32ZM651.936 0.879997V-3.12H649.195L648.206 -0.563705L651.936 0.879997ZM689.808 0.879997H693.808V-3.12H689.808V0.879997ZM689.808 106V110H693.808V106H689.808ZM663.312 106H659.312V110H663.312V106ZM663.312 16.288L663.588 12.2975L659.312 12.0026V16.288H663.312ZM667.488 16.576L671.207 18.0507L673.225 12.9621L667.764 12.5855L667.488 16.576ZM640.416 84.832V88.832H643.133L644.135 86.3067L640.416 84.832ZM616.08 84.832L612.365 86.3135L613.369 88.832H616.08V84.832ZM588.864 16.576L588.607 12.5843L583.108 12.9391L585.149 18.0575L588.864 16.576ZM593.328 16.288H597.328V12.0216L593.071 12.2963L593.328 16.288ZM593.328 106V110H597.328V106H593.328ZM572.848 106V0.879997H564.848V106H572.848ZM568.848 4.88H606V-3.12H568.848V4.88ZM602.273 2.33212L623.873 57.7721L631.328 54.8679L609.728 -0.572124L602.273 2.33212ZM627.6 60.32H630.48V52.32H627.6V60.32ZM634.211 57.7637L655.667 2.3237L648.206 -0.563705L626.75 54.8763L634.211 57.7637ZM651.936 4.88H689.808V-3.12H651.936V4.88ZM685.808 0.879997V106H693.808V0.879997H685.808ZM689.808 102H663.312V110H689.808V102ZM667.312 106V16.288H659.312V106H667.312ZM663.037 20.2785L667.213 20.5665L667.764 12.5855L663.588 12.2975L663.037 20.2785ZM663.77 15.1013L636.698 83.3573L644.135 86.3067L671.207 18.0507L663.77 15.1013ZM640.416 80.832H616.08V88.832H640.416V80.832ZM619.796 83.3505L592.58 15.0945L585.149 18.0575L612.365 86.3135L619.796 83.3505ZM589.122 20.5677L593.586 20.2797L593.071 12.2963L588.607 12.5843L589.122 20.5677ZM589.328 16.288V106H597.328V16.288H589.328ZM593.328 102H568.848V110H593.328V102ZM714.041 106H710.041V110H714.041V106ZM714.041 0.879997V-3.12H710.041V0.879997H714.041ZM739.961 0.879997H743.961V-3.12H739.961V0.879997ZM739.961 106V110H743.961V106H739.961ZM737.081 106H733.081V110H737.081V106ZM737.081 84.112V80.112H733.081V84.112H737.081ZM781.433 84.112H785.433V80.112H781.433V84.112ZM781.433 106V110H785.433V106H781.433ZM737.081 63.52H733.081V67.52H737.081V63.52ZM737.081 41.632V37.632H733.081V41.632H737.081ZM778.409 41.632H782.409V37.632H778.409V41.632ZM778.409 63.52V67.52H782.409V63.52H778.409ZM737.081 22.768H733.081V26.768H737.081V22.768ZM737.081 0.879997V-3.12H733.081V0.879997H737.081ZM780.569 0.879997H784.569V-3.12H780.569V0.879997ZM780.569 22.768V26.768H784.569V22.768H780.569ZM718.041 106V0.879997H710.041V106H718.041ZM714.041 4.88H739.961V-3.12H714.041V4.88ZM735.961 0.879997V106H743.961V0.879997H735.961ZM739.961 102H714.041V110H739.961V102ZM741.081 106V84.112H733.081V106H741.081ZM737.081 88.112H781.433V80.112H737.081V88.112ZM777.433 84.112V106H785.433V84.112H777.433ZM781.433 102H737.081V110H781.433V102ZM741.081 63.52V41.632H733.081V63.52H741.081ZM737.081 45.632H778.409V37.632H737.081V45.632ZM774.409 41.632V63.52H782.409V41.632H774.409ZM778.409 59.52H737.081V67.52H778.409V59.52ZM741.081 22.768V0.879997H733.081V22.768H741.081ZM737.081 4.88H780.569V-3.12H737.081V4.88ZM776.569 0.879997V22.768H784.569V0.879997H776.569ZM780.569 18.768H737.081V26.768H780.569V18.768ZM802.14 106H798.14V110H802.14V106ZM802.14 0.879997V-3.12H798.14V0.879997H802.14ZM846.06 0.879997L849.751 -0.661167L848.724 -3.12H846.06V0.879997ZM881.052 84.688L877.36 86.2292L878.387 88.688H881.052V84.688ZM886.092 84.688L888.767 87.6612L896.516 80.688H886.092V84.688ZM883.212 87.28H879.212V96.2614L885.887 90.2532L883.212 87.28ZM883.212 0.879997V-3.12H879.212V0.879997H883.212ZM908.268 0.879997H912.268V-3.12H908.268V0.879997ZM908.268 106V110H912.268V106H908.268ZM864.06 106L860.368 107.541L861.395 110H864.06V106ZM829.068 22.192L832.759 20.6508L831.732 18.192H829.068V22.192ZM824.028 22.192L821.352 19.2188L813.604 26.192H824.028V22.192ZM826.908 19.6H830.908V10.6185L824.232 16.6268L826.908 19.6ZM826.908 106V110H830.908V106H826.908ZM806.14 106V0.879997H798.14V106H806.14ZM802.14 4.88H846.06V-3.12H802.14V4.88ZM842.368 2.42116L877.36 86.2292L884.743 83.1468L849.751 -0.661167L842.368 2.42116ZM881.052 88.688H886.092V80.688H881.052V88.688ZM883.416 81.7148L880.536 84.3068L885.887 90.2532L888.767 87.6612L883.416 81.7148ZM887.212 87.28V0.879997H879.212V87.28H887.212ZM883.212 4.88H908.268V-3.12H883.212V4.88ZM904.268 0.879997V106H912.268V0.879997H904.268ZM908.268 102H864.06V110H908.268V102ZM867.751 104.459L832.759 20.6508L825.376 23.7332L860.368 107.541L867.751 104.459ZM829.068 18.192H824.028V26.192H829.068V18.192ZM826.703 25.1652L829.583 22.5732L824.232 16.6268L821.352 19.2188L826.703 25.1652ZM822.908 19.6V106H830.908V19.6H822.908ZM826.908 102H802.14V110H826.908V102ZM951.722 103.264L949.817 106.781L949.827 106.787L949.837 106.792L951.722 103.264ZM935.882 87.424L932.344 89.291L932.35 89.3013L932.355 89.3115L935.882 87.424ZM930.41 0.879997V-3.12H926.41V0.879997H930.41ZM957.194 0.879997H961.194V-3.12H957.194V0.879997ZM959.498 74.32L955.92 76.1089L955.942 76.153L955.966 76.1966L959.498 74.32ZM966.41 81.376L964.487 84.8832L966.41 81.376ZM988.298 81.376L986.375 77.8688L988.298 81.376ZM995.066 74.464L998.62 76.2986L998.632 76.2758L998.644 76.2529L995.066 74.464ZM997.37 0.879997V-3.12H993.37V0.879997H997.37ZM1024.15 0.879997H1028.15V-3.12H1024.15V0.879997ZM1018.68 87.424L1015.14 85.557L1015.14 85.5662L1015.13 85.5754L1018.68 87.424ZM1002.84 103.264L1000.96 99.7359L1000.95 99.7413L1000.94 99.7468L1002.84 103.264ZM977.354 104.88C967.759 104.88 959.9 103.098 953.607 99.7359L949.837 106.792C957.56 110.918 966.789 112.88 977.354 112.88V104.88ZM953.627 99.7468C947.391 96.369 942.681 91.6501 939.409 85.5365L932.355 89.3115C936.379 96.8299 942.229 102.671 949.817 106.781L953.627 99.7468ZM939.42 85.557C936.131 79.3265 934.41 71.8329 934.41 62.944H926.41C926.41 72.8711 928.337 81.6975 932.344 89.291L939.42 85.557ZM934.41 62.944V0.879997H926.41V62.944H934.41ZM930.41 4.88H957.194V-3.12H930.41V4.88ZM953.194 0.879997V63.52H961.194V0.879997H953.194ZM953.194 63.52C953.194 68.145 954.056 72.3802 955.92 76.1089L963.076 72.5311C961.868 70.1158 961.194 67.151 961.194 63.52H953.194ZM955.966 76.1966C957.954 79.9392 960.809 82.8664 964.487 84.8832L968.333 77.8688C966.059 76.6216 964.306 74.8447 963.031 72.4434L955.966 76.1966ZM964.487 84.8832C968.192 86.915 972.541 87.824 977.354 87.824V79.824C973.527 79.824 970.58 79.101 968.333 77.8688L964.487 84.8832ZM977.354 87.824C982.167 87.824 986.516 86.915 990.221 84.8832L986.375 77.8688C984.128 79.101 981.181 79.824 977.354 79.824V87.824ZM990.221 84.8832C993.885 82.8739 996.714 79.9921 998.62 76.2986L991.512 72.6294C990.346 74.8879 988.663 76.6141 986.375 77.8688L990.221 84.8832ZM998.644 76.2529C1000.51 72.5124 1001.37 68.2248 1001.37 63.52H993.37C993.37 67.2632 992.69 70.2716 991.488 72.6751L998.644 76.2529ZM1001.37 63.52V0.879997H993.37V63.52H1001.37ZM997.37 4.88H1024.15V-3.12H997.37V4.88ZM1020.15 0.879997V62.944H1028.15V0.879997H1020.15ZM1020.15 62.944C1020.15 71.8329 1018.43 79.3265 1015.14 85.557L1022.22 89.291C1026.23 81.6975 1028.15 72.8711 1028.15 62.944H1020.15ZM1015.13 85.5754C1011.97 91.6518 1007.28 96.358 1000.96 99.7359L1004.73 106.792C1012.42 102.682 1018.29 96.8282 1022.23 89.2726L1015.13 85.5754ZM1000.94 99.7468C994.752 103.097 986.952 104.88 977.354 104.88V112.88C987.916 112.88 997.108 110.919 1004.75 106.781L1000.94 99.7468ZM1073.2 76.768H1069.2V80.768H1073.2V76.768ZM1073.2 53.44V49.44H1069.2V53.44H1073.2ZM1136.27 53.44H1140.27V49.44H1136.27V53.44ZM1136.27 76.768V80.768H1140.27V76.768H1136.27ZM1077.2 76.768V53.44H1069.2V76.768H1077.2ZM1073.2 57.44H1136.27V49.44H1073.2V57.44ZM1132.27 53.44V76.768H1140.27V53.44H1132.27ZM1136.27 72.768H1073.2V80.768H1136.27V72.768ZM1187.23 106H1183.23V110H1187.23V106ZM1187.23 0.879997V-3.12H1183.23V0.879997H1187.23ZM1224.38 0.879997L1228.11 -0.572124L1227.11 -3.12H1224.38V0.879997ZM1245.98 56.32L1242.25 57.7721L1243.24 60.32H1245.98V56.32ZM1248.86 56.32V60.32H1251.6L1252.59 57.7637L1248.86 56.32ZM1270.32 0.879997V-3.12H1267.57L1266.58 -0.563705L1270.32 0.879997ZM1308.19 0.879997H1312.19V-3.12H1308.19V0.879997ZM1308.19 106V110H1312.19V106H1308.19ZM1281.69 106H1277.69V110H1281.69V106ZM1281.69 16.288L1281.97 12.2975L1277.69 12.0026V16.288H1281.69ZM1285.87 16.576L1289.59 18.0507L1291.6 12.9621L1286.14 12.5855L1285.87 16.576ZM1258.8 84.832V88.832H1261.51L1262.51 86.3067L1258.8 84.832ZM1234.46 84.832L1230.74 86.3135L1231.75 88.832H1234.46V84.832ZM1207.24 16.576L1206.99 12.5843L1201.49 12.9391L1203.53 18.0575L1207.24 16.576ZM1211.71 16.288H1215.71V12.0216L1211.45 12.2963L1211.71 16.288ZM1211.71 106V110H1215.71V106H1211.71ZM1191.23 106V0.879997H1183.23V106H1191.23ZM1187.23 4.88H1224.38V-3.12H1187.23V4.88ZM1220.65 2.33212L1242.25 57.7721L1249.71 54.8679L1228.11 -0.572124L1220.65 2.33212ZM1245.98 60.32H1248.86V52.32H1245.98V60.32ZM1252.59 57.7637L1274.05 2.3237L1266.58 -0.563705L1245.13 54.8763L1252.59 57.7637ZM1270.32 4.88H1308.19V-3.12H1270.32V4.88ZM1304.19 0.879997V106H1312.19V0.879997H1304.19ZM1308.19 102H1281.69V110H1308.19V102ZM1285.69 106V16.288H1277.69V106H1285.69ZM1281.42 20.2785L1285.59 20.5665L1286.14 12.5855L1281.97 12.2975L1281.42 20.2785ZM1282.15 15.1013L1255.08 83.3573L1262.51 86.3067L1289.59 18.0507L1282.15 15.1013ZM1258.8 80.832H1234.46V88.832H1258.8V80.832ZM1238.17 83.3505L1210.96 15.0945L1203.53 18.0575L1230.74 86.3135L1238.17 83.3505ZM1207.5 20.5677L1211.96 20.2797L1211.45 12.2963L1206.99 12.5843L1207.5 20.5677ZM1207.71 16.288V106H1215.71V16.288H1207.71ZM1211.71 102H1187.23V110H1211.71V102ZM1332.42 106H1328.42V110H1332.42V106ZM1332.42 0.879997V-3.12H1328.42V0.879997H1332.42ZM1358.34 0.879997H1362.34V-3.12H1358.34V0.879997ZM1358.34 106V110H1362.34V106H1358.34ZM1355.46 106H1351.46V110H1355.46V106ZM1355.46 84.112V80.112H1351.46V84.112H1355.46ZM1399.81 84.112H1403.81V80.112H1399.81V84.112ZM1399.81 106V110H1403.81V106H1399.81ZM1355.46 63.52H1351.46V67.52H1355.46V63.52ZM1355.46 41.632V37.632H1351.46V41.632H1355.46ZM1396.79 41.632H1400.79V37.632H1396.79V41.632ZM1396.79 63.52V67.52H1400.79V63.52H1396.79ZM1355.46 22.768H1351.46V26.768H1355.46V22.768ZM1355.46 0.879997V-3.12H1351.46V0.879997H1355.46ZM1398.95 0.879997H1402.95V-3.12H1398.95V0.879997ZM1398.95 22.768V26.768H1402.95V22.768H1398.95ZM1336.42 106V0.879997H1328.42V106H1336.42ZM1332.42 4.88H1358.34V-3.12H1332.42V4.88ZM1354.34 0.879997V106H1362.34V0.879997H1354.34ZM1358.34 102H1332.42V110H1358.34V102ZM1359.46 106V84.112H1351.46V106H1359.46ZM1355.46 88.112H1399.81V80.112H1355.46V88.112ZM1395.81 84.112V106H1403.81V84.112H1395.81ZM1399.81 102H1355.46V110H1399.81V102ZM1359.46 63.52V41.632H1351.46V63.52H1359.46ZM1355.46 45.632H1396.79V37.632H1355.46V45.632ZM1392.79 41.632V63.52H1400.79V41.632H1392.79ZM1396.79 59.52H1355.46V67.52H1396.79V59.52ZM1359.46 22.768V0.879997H1351.46V22.768H1359.46ZM1355.46 4.88H1398.95V-3.12H1355.46V4.88ZM1394.95 0.879997V22.768H1402.95V0.879997H1394.95ZM1398.95 18.768H1355.46V26.768H1398.95V18.768ZM1420.52 106H1416.52V110H1420.52V106ZM1420.52 0.879997V-3.12H1416.52V0.879997H1420.52ZM1464.44 0.879997L1468.13 -0.661167L1467.1 -3.12H1464.44V0.879997ZM1499.43 84.688L1495.74 86.2292L1496.77 88.688H1499.43V84.688ZM1504.47 84.688L1507.15 87.6612L1514.89 80.688H1504.47V84.688ZM1501.59 87.28H1497.59V96.2614L1504.27 90.2532L1501.59 87.28ZM1501.59 0.879997V-3.12H1497.59V0.879997H1501.59ZM1526.65 0.879997H1530.65V-3.12H1526.65V0.879997ZM1526.65 106V110H1530.65V106H1526.65ZM1482.44 106L1478.75 107.541L1479.77 110H1482.44V106ZM1447.45 22.192L1451.14 20.6508L1450.11 18.192H1447.45V22.192ZM1442.41 22.192L1439.73 19.2188L1431.98 26.192H1442.41V22.192ZM1445.29 19.6H1449.29V10.6185L1442.61 16.6268L1445.29 19.6ZM1445.29 106V110H1449.29V106H1445.29ZM1424.52 106V0.879997H1416.52V106H1424.52ZM1420.52 4.88H1464.44V-3.12H1420.52V4.88ZM1460.75 2.42116L1495.74 86.2292L1503.12 83.1468L1468.13 -0.661167L1460.75 2.42116ZM1499.43 88.688H1504.47V80.688H1499.43V88.688ZM1501.79 81.7148L1498.91 84.3068L1504.27 90.2532L1507.15 87.6612L1501.79 81.7148ZM1505.59 87.28V0.879997H1497.59V87.28H1505.59ZM1501.59 4.88H1526.65V-3.12H1501.59V4.88ZM1522.65 0.879997V106H1530.65V0.879997H1522.65ZM1526.65 102H1482.44V110H1526.65V102ZM1486.13 104.459L1451.14 20.6508L1443.76 23.7332L1478.75 107.541L1486.13 104.459ZM1447.45 18.192H1442.41V26.192H1447.45V18.192ZM1445.08 25.1652L1447.96 22.5732L1442.61 16.6268L1439.73 19.2188L1445.08 25.1652ZM1441.29 19.6V106H1449.29V19.6H1441.29ZM1445.29 102H1420.52V110H1445.29V102ZM1570.1 103.264L1568.2 106.781L1568.21 106.787L1568.22 106.792L1570.1 103.264ZM1554.26 87.424L1550.72 89.291L1550.73 89.3013L1550.73 89.3115L1554.26 87.424ZM1548.79 0.879997V-3.12H1544.79V0.879997H1548.79ZM1575.57 0.879997H1579.57V-3.12H1575.57V0.879997ZM1577.88 74.32L1574.3 76.1089L1574.32 76.153L1574.34 76.1966L1577.88 74.32ZM1584.79 81.376L1582.87 84.8832L1584.79 81.376ZM1606.68 81.376L1604.75 77.8688L1606.68 81.376ZM1613.44 74.464L1617 76.2986L1617.01 76.2758L1617.02 76.2529L1613.44 74.464ZM1615.75 0.879997V-3.12H1611.75V0.879997H1615.75ZM1642.53 0.879997H1646.53V-3.12H1642.53V0.879997ZM1637.06 87.424L1633.52 85.557L1633.52 85.5662L1633.51 85.5754L1637.06 87.424ZM1621.22 103.264L1619.34 99.7359L1619.33 99.7413L1619.32 99.7468L1621.22 103.264ZM1595.73 104.88C1586.14 104.88 1578.28 103.098 1571.99 99.7359L1568.22 106.792C1575.94 110.918 1585.17 112.88 1595.73 112.88V104.88ZM1572.01 99.7468C1565.77 96.369 1561.06 91.6501 1557.79 85.5365L1550.73 89.3115C1554.76 96.8299 1560.61 102.671 1568.2 106.781L1572.01 99.7468ZM1557.8 85.557C1554.51 79.3265 1552.79 71.8329 1552.79 62.944H1544.79C1544.79 72.8711 1546.72 81.6975 1550.72 89.291L1557.8 85.557ZM1552.79 62.944V0.879997H1544.79V62.944H1552.79ZM1548.79 4.88H1575.57V-3.12H1548.79V4.88ZM1571.57 0.879997V63.52H1579.57V0.879997H1571.57ZM1571.57 63.52C1571.57 68.145 1572.43 72.3802 1574.3 76.1089L1581.45 72.5311C1580.25 70.1158 1579.57 67.151 1579.57 63.52H1571.57ZM1574.34 76.1966C1576.33 79.9392 1579.19 82.8664 1582.87 84.8832L1586.71 77.8688C1584.44 76.6216 1582.68 74.8447 1581.41 72.4434L1574.34 76.1966ZM1582.87 84.8832C1586.57 86.915 1590.92 87.824 1595.73 87.824V79.824C1591.91 79.824 1588.96 79.101 1586.71 77.8688L1582.87 84.8832ZM1595.73 87.824C1600.55 87.824 1604.9 86.915 1608.6 84.8832L1604.75 77.8688C1602.51 79.101 1599.56 79.824 1595.73 79.824V87.824ZM1608.6 84.8832C1612.26 82.8739 1615.09 79.9921 1617 76.2986L1609.89 72.6294C1608.72 74.8879 1607.04 76.6141 1604.75 77.8688L1608.6 84.8832ZM1617.02 76.2529C1618.89 72.5124 1619.75 68.2248 1619.75 63.52H1611.75C1611.75 67.2632 1611.07 70.2716 1609.87 72.6751L1617.02 76.2529ZM1619.75 63.52V0.879997H1611.75V63.52H1619.75ZM1615.75 4.88H1642.53V-3.12H1615.75V4.88ZM1638.53 0.879997V62.944H1646.53V0.879997H1638.53ZM1638.53 62.944C1638.53 71.8329 1636.81 79.3265 1633.52 85.557L1640.6 89.291C1644.61 81.6975 1646.53 72.8711 1646.53 62.944H1638.53ZM1633.51 85.5754C1630.35 91.6518 1625.66 96.358 1619.34 99.7359L1623.11 106.792C1630.8 102.682 1636.67 96.8282 1640.61 89.2726L1633.51 85.5754ZM1619.32 99.7468C1613.13 103.097 1605.33 104.88 1595.73 104.88V112.88C1606.29 112.88 1615.49 110.919 1623.13 106.781L1619.32 99.7468ZM1691.58 76.768H1687.58V80.768H1691.58V76.768ZM1691.58 53.44V49.44H1687.58V53.44H1691.58ZM1754.65 53.44H1758.65V49.44H1754.65V53.44ZM1754.65 76.768V80.768H1758.65V76.768H1754.65ZM1695.58 76.768V53.44H1687.58V76.768H1695.58ZM1691.58 57.44H1754.65V49.44H1691.58V57.44ZM1750.65 53.44V76.768H1758.65V53.44H1750.65ZM1754.65 72.768H1691.58V80.768H1754.65V72.768ZM1805.61 106H1801.61V110H1805.61V106ZM1805.61 0.879997V-3.12H1801.61V0.879997H1805.61ZM1842.76 0.879997L1846.49 -0.572124L1845.49 -3.12H1842.76V0.879997ZM1864.36 56.32L1860.63 57.7721L1861.62 60.32H1864.36V56.32ZM1867.24 56.32V60.32H1869.98L1870.97 57.7637L1867.24 56.32ZM1888.69 0.879997V-3.12H1885.95L1884.96 -0.563705L1888.69 0.879997ZM1926.57 0.879997H1930.57V-3.12H1926.57V0.879997ZM1926.57 106V110H1930.57V106H1926.57ZM1900.07 106H1896.07V110H1900.07V106ZM1900.07 16.288L1900.35 12.2975L1896.07 12.0026V16.288H1900.07ZM1904.25 16.576L1907.96 18.0507L1909.98 12.9621L1904.52 12.5855L1904.25 16.576ZM1877.17 84.832V88.832H1879.89L1880.89 86.3067L1877.17 84.832ZM1852.84 84.832L1849.12 86.3135L1850.13 88.832H1852.84V84.832ZM1825.62 16.576L1825.36 12.5843L1819.87 12.9391L1821.91 18.0575L1825.62 16.576ZM1830.09 16.288H1834.09V12.0216L1829.83 12.2963L1830.09 16.288ZM1830.09 106V110H1834.09V106H1830.09ZM1809.61 106V0.879997H1801.61V106H1809.61ZM1805.61 4.88H1842.76V-3.12H1805.61V4.88ZM1839.03 2.33212L1860.63 57.7721L1868.08 54.8679L1846.49 -0.572124L1839.03 2.33212ZM1864.36 60.32H1867.24V52.32H1864.36V60.32ZM1870.97 57.7637L1892.42 2.3237L1884.96 -0.563705L1863.51 54.8763L1870.97 57.7637ZM1888.69 4.88H1926.57V-3.12H1888.69V4.88ZM1922.57 0.879997V106H1930.57V0.879997H1922.57ZM1926.57 102H1900.07V110H1926.57V102ZM1904.07 106V16.288H1896.07V106H1904.07ZM1899.79 20.2785L1903.97 20.5665L1904.52 12.5855L1900.35 12.2975L1899.79 20.2785ZM1900.53 15.1013L1873.46 83.3573L1880.89 86.3067L1907.96 18.0507L1900.53 15.1013ZM1877.17 80.832H1852.84V88.832H1877.17V80.832ZM1856.55 83.3505L1829.34 15.0945L1821.91 18.0575L1849.12 86.3135L1856.55 83.3505ZM1825.88 20.5677L1830.34 20.2797L1829.83 12.2963L1825.36 12.5843L1825.88 20.5677ZM1826.09 16.288V106H1834.09V16.288H1826.09ZM1830.09 102H1805.61V110H1830.09V102ZM1950.8 106H1946.8V110H1950.8V106ZM1950.8 0.879997V-3.12H1946.8V0.879997H1950.8ZM1976.72 0.879997H1980.72V-3.12H1976.72V0.879997ZM1976.72 106V110H1980.72V106H1976.72ZM1973.84 106H1969.84V110H1973.84V106ZM1973.84 84.112V80.112H1969.84V84.112H1973.84ZM2018.19 84.112H2022.19V80.112H2018.19V84.112ZM2018.19 106V110H2022.19V106H2018.19ZM1973.84 63.52H1969.84V67.52H1973.84V63.52ZM1973.84 41.632V37.632H1969.84V41.632H1973.84ZM2015.17 41.632H2019.17V37.632H2015.17V41.632ZM2015.17 63.52V67.52H2019.17V63.52H2015.17ZM1973.84 22.768H1969.84V26.768H1973.84V22.768ZM1973.84 0.879997V-3.12H1969.84V0.879997H1973.84ZM2017.33 0.879997H2021.33V-3.12H2017.33V0.879997ZM2017.33 22.768V26.768H2021.33V22.768H2017.33ZM1954.8 106V0.879997H1946.8V106H1954.8ZM1950.8 4.88H1976.72V-3.12H1950.8V4.88ZM1972.72 0.879997V106H1980.72V0.879997H1972.72ZM1976.72 102H1950.8V110H1976.72V102ZM1977.84 106V84.112H1969.84V106H1977.84ZM1973.84 88.112H2018.19V80.112H1973.84V88.112ZM2014.19 84.112V106H2022.19V84.112H2014.19ZM2018.19 102H1973.84V110H2018.19V102ZM1977.84 63.52V41.632H1969.84V63.52H1977.84ZM1973.84 45.632H2015.17V37.632H1973.84V45.632ZM2011.17 41.632V63.52H2019.17V41.632H2011.17ZM2015.17 59.52H1973.84V67.52H2015.17V59.52ZM1977.84 22.768V0.879997H1969.84V22.768H1977.84ZM1973.84 4.88H2017.33V-3.12H1973.84V4.88ZM2013.33 0.879997V22.768H2021.33V0.879997H2013.33ZM2017.33 18.768H1973.84V26.768H2017.33V18.768ZM2038.9 106H2034.9V110H2038.9V106ZM2038.9 0.879997V-3.12H2034.9V0.879997H2038.9ZM2082.82 0.879997L2086.51 -0.661167L2085.48 -3.12H2082.82V0.879997ZM2117.81 84.688L2114.12 86.2292L2115.14 88.688H2117.81V84.688ZM2122.85 84.688L2125.53 87.6612L2133.27 80.688H2122.85V84.688ZM2119.97 87.28H2115.97V96.2614L2122.65 90.2532L2119.97 87.28ZM2119.97 0.879997V-3.12H2115.97V0.879997H2119.97ZM2145.03 0.879997H2149.03V-3.12H2145.03V0.879997ZM2145.03 106V110H2149.03V106H2145.03ZM2100.82 106L2097.13 107.541L2098.15 110H2100.82V106ZM2065.83 22.192L2069.52 20.6508L2068.49 18.192H2065.83V22.192ZM2060.79 22.192L2058.11 19.2188L2050.36 26.192H2060.79V22.192ZM2063.67 19.6H2067.67V10.6185L2060.99 16.6268L2063.67 19.6ZM2063.67 106V110H2067.67V106H2063.67ZM2042.9 106V0.879997H2034.9V106H2042.9ZM2038.9 4.88H2082.82V-3.12H2038.9V4.88ZM2079.13 2.42116L2114.12 86.2292L2121.5 83.1468L2086.51 -0.661167L2079.13 2.42116ZM2117.81 88.688H2122.85V80.688H2117.81V88.688ZM2120.17 81.7148L2117.29 84.3068L2122.65 90.2532L2125.53 87.6612L2120.17 81.7148ZM2123.97 87.28V0.879997H2115.97V87.28H2123.97ZM2119.97 4.88H2145.03V-3.12H2119.97V4.88ZM2141.03 0.879997V106H2149.03V0.879997H2141.03ZM2145.03 102H2100.82V110H2145.03V102ZM2104.51 104.459L2069.52 20.6508L2062.13 23.7332L2097.13 107.541L2104.51 104.459ZM2065.83 18.192H2060.79V26.192H2065.83V18.192ZM2063.46 25.1652L2066.34 22.5732L2060.99 16.6268L2058.11 19.2188L2063.46 25.1652ZM2059.67 19.6V106H2067.67V19.6H2059.67ZM2063.67 102H2038.9V110H2063.67V102ZM2188.48 103.264L2186.57 106.781L2186.58 106.787L2186.59 106.792L2188.48 103.264ZM2172.64 87.424L2169.1 89.291L2169.11 89.3013L2169.11 89.3115L2172.64 87.424ZM2167.17 0.879997V-3.12H2163.17V0.879997H2167.17ZM2193.95 0.879997H2197.95V-3.12H2193.95V0.879997ZM2196.26 74.32L2192.68 76.1089L2192.7 76.153L2192.72 76.1966L2196.26 74.32ZM2203.17 81.376L2201.24 84.8832L2203.17 81.376ZM2225.06 81.376L2223.13 77.8688L2225.06 81.376ZM2231.82 74.464L2235.38 76.2986L2235.39 76.2758L2235.4 76.2529L2231.82 74.464ZM2234.13 0.879997V-3.12H2230.13V0.879997H2234.13ZM2260.91 0.879997H2264.91V-3.12H2260.91V0.879997ZM2255.44 87.424L2251.9 85.557L2251.9 85.5662L2251.89 85.5754L2255.44 87.424ZM2239.6 103.264L2237.71 99.7359L2237.7 99.7413L2237.69 99.7468L2239.6 103.264ZM2214.11 104.88C2204.52 104.88 2196.66 103.098 2190.36 99.7359L2186.59 106.792C2194.32 110.918 2203.55 112.88 2214.11 112.88V104.88ZM2190.38 99.7468C2184.15 96.369 2179.44 91.6501 2176.17 85.5365L2169.11 89.3115C2173.14 96.8299 2178.99 102.671 2186.57 106.781L2190.38 99.7468ZM2176.18 85.557C2172.89 79.3265 2171.17 71.8329 2171.17 62.944H2163.17C2163.17 72.8711 2165.09 81.6975 2169.1 89.291L2176.18 85.557ZM2171.17 62.944V0.879997H2163.17V62.944H2171.17ZM2167.17 4.88H2193.95V-3.12H2167.17V4.88ZM2189.95 0.879997V63.52H2197.95V0.879997H2189.95ZM2189.95 63.52C2189.95 68.145 2190.81 72.3802 2192.68 76.1089L2199.83 72.5311C2198.63 70.1158 2197.95 67.151 2197.95 63.52H2189.95ZM2192.72 76.1966C2194.71 79.9392 2197.57 82.8664 2201.24 84.8832L2205.09 77.8688C2202.82 76.6216 2201.06 74.8447 2199.79 72.4434L2192.72 76.1966ZM2201.24 84.8832C2204.95 86.915 2209.3 87.824 2214.11 87.824V79.824C2210.28 79.824 2207.34 79.101 2205.09 77.8688L2201.24 84.8832ZM2214.11 87.824C2218.92 87.824 2223.27 86.915 2226.98 84.8832L2223.13 77.8688C2220.89 79.101 2217.94 79.824 2214.11 79.824V87.824ZM2226.98 84.8832C2230.64 82.8739 2233.47 79.9921 2235.38 76.2986L2228.27 72.6294C2227.1 74.8879 2225.42 76.6141 2223.13 77.8688L2226.98 84.8832ZM2235.4 76.2529C2237.27 72.5124 2238.13 68.2248 2238.13 63.52H2230.13C2230.13 67.2632 2229.45 70.2716 2228.25 72.6751L2235.4 76.2529ZM2238.13 63.52V0.879997H2230.13V63.52H2238.13ZM2234.13 4.88H2260.91V-3.12H2234.13V4.88ZM2256.91 0.879997V62.944H2264.91V0.879997H2256.91ZM2256.91 62.944C2256.91 71.8329 2255.19 79.3265 2251.9 85.557L2258.98 89.291C2262.98 81.6975 2264.91 72.8711 2264.91 62.944H2256.91ZM2251.89 85.5754C2248.73 91.6518 2244.04 96.358 2237.71 99.7359L2241.48 106.792C2249.18 102.682 2255.05 96.8282 2258.99 89.2726L2251.89 85.5754ZM2237.69 99.7468C2231.51 103.097 2223.71 104.88 2214.11 104.88V112.88C2224.67 112.88 2233.87 110.919 2241.5 106.781L2237.69 99.7468ZM2309.96 76.768H2305.96V80.768H2309.96V76.768ZM2309.96 53.44V49.44H2305.96V53.44H2309.96ZM2373.03 53.44H2377.03V49.44H2373.03V53.44ZM2373.03 76.768V80.768H2377.03V76.768H2373.03ZM2313.96 76.768V53.44H2305.96V76.768H2313.96ZM2309.96 57.44H2373.03V49.44H2309.96V57.44ZM2369.03 53.44V76.768H2377.03V53.44H2369.03ZM2373.03 72.768H2309.96V80.768H2373.03V72.768ZM2423.98 106H2419.98V110H2423.98V106ZM2423.98 0.879997V-3.12H2419.98V0.879997H2423.98ZM2461.14 0.879997L2464.86 -0.572124L2463.87 -3.12H2461.14V0.879997ZM2482.74 56.32L2479.01 57.7721L2480 60.32H2482.74V56.32ZM2485.62 56.32V60.32H2488.36L2489.35 57.7637L2485.62 56.32ZM2507.07 0.879997V-3.12H2504.33L2503.34 -0.563705L2507.07 0.879997ZM2544.94 0.879997H2548.94V-3.12H2544.94V0.879997ZM2544.94 106V110H2548.94V106H2544.94ZM2518.45 106H2514.45V110H2518.45V106ZM2518.45 16.288L2518.72 12.2975L2514.45 12.0026V16.288H2518.45ZM2522.62 16.576L2526.34 18.0507L2528.36 12.9621L2522.9 12.5855L2522.62 16.576ZM2495.55 84.832V88.832H2498.27L2499.27 86.3067L2495.55 84.832ZM2471.22 84.832L2467.5 86.3135L2468.51 88.832H2471.22V84.832ZM2444 16.576L2443.74 12.5843L2438.24 12.9391L2440.29 18.0575L2444 16.576ZM2448.46 16.288H2452.46V12.0216L2448.21 12.2963L2448.46 16.288ZM2448.46 106V110H2452.46V106H2448.46ZM2427.98 106V0.879997H2419.98V106H2427.98ZM2423.98 4.88H2461.14V-3.12H2423.98V4.88ZM2457.41 2.33212L2479.01 57.7721L2486.46 54.8679L2464.86 -0.572124L2457.41 2.33212ZM2482.74 60.32H2485.62V52.32H2482.74V60.32ZM2489.35 57.7637L2510.8 2.3237L2503.34 -0.563705L2481.89 54.8763L2489.35 57.7637ZM2507.07 4.88H2544.94V-3.12H2507.07V4.88ZM2540.94 0.879997V106H2548.94V0.879997H2540.94ZM2544.94 102H2518.45V110H2544.94V102ZM2522.45 106V16.288H2514.45V106H2522.45ZM2518.17 20.2785L2522.35 20.5665L2522.9 12.5855L2518.72 12.2975L2518.17 20.2785ZM2518.91 15.1013L2491.83 83.3573L2499.27 86.3067L2526.34 18.0507L2518.91 15.1013ZM2495.55 80.832H2471.22V88.832H2495.55V80.832ZM2474.93 83.3505L2447.72 15.0945L2440.29 18.0575L2467.5 86.3135L2474.93 83.3505ZM2444.26 20.5677L2448.72 20.2797L2448.21 12.2963L2443.74 12.5843L2444.26 20.5677ZM2444.46 16.288V106H2452.46V16.288H2444.46ZM2448.46 102H2423.98V110H2448.46V102ZM2569.18 106H2565.18V110H2569.18V106ZM2569.18 0.879997V-3.12H2565.18V0.879997H2569.18ZM2595.1 0.879997H2599.1V-3.12H2595.1V0.879997ZM2595.1 106V110H2599.1V106H2595.1ZM2592.22 106H2588.22V110H2592.22V106ZM2592.22 84.112V80.112H2588.22V84.112H2592.22ZM2636.57 84.112H2640.57V80.112H2636.57V84.112ZM2636.57 106V110H2640.57V106H2636.57ZM2592.22 63.52H2588.22V67.52H2592.22V63.52ZM2592.22 41.632V37.632H2588.22V41.632H2592.22ZM2633.55 41.632H2637.55V37.632H2633.55V41.632ZM2633.55 63.52V67.52H2637.55V63.52H2633.55ZM2592.22 22.768H2588.22V26.768H2592.22V22.768ZM2592.22 0.879997V-3.12H2588.22V0.879997H2592.22ZM2635.71 0.879997H2639.71V-3.12H2635.71V0.879997ZM2635.71 22.768V26.768H2639.71V22.768H2635.71ZM2573.18 106V0.879997H2565.18V106H2573.18ZM2569.18 4.88H2595.1V-3.12H2569.18V4.88ZM2591.1 0.879997V106H2599.1V0.879997H2591.1ZM2595.1 102H2569.18V110H2595.1V102ZM2596.22 106V84.112H2588.22V106H2596.22ZM2592.22 88.112H2636.57V80.112H2592.22V88.112ZM2632.57 84.112V106H2640.57V84.112H2632.57ZM2636.57 102H2592.22V110H2636.57V102ZM2596.22 63.52V41.632H2588.22V63.52H2596.22ZM2592.22 45.632H2633.55V37.632H2592.22V45.632ZM2629.55 41.632V63.52H2637.55V41.632H2629.55ZM2633.55 59.52H2592.22V67.52H2633.55V59.52ZM2596.22 22.768V0.879997H2588.22V22.768H2596.22ZM2592.22 4.88H2635.71V-3.12H2592.22V4.88ZM2631.71 0.879997V22.768H2639.71V0.879997H2631.71ZM2635.71 18.768H2592.22V26.768H2635.71V18.768ZM2657.28 106H2653.28V110H2657.28V106ZM2657.28 0.879997V-3.12H2653.28V0.879997H2657.28ZM2701.2 0.879997L2704.89 -0.661167L2703.86 -3.12H2701.2V0.879997ZM2736.19 84.688L2732.5 86.2292L2733.52 88.688H2736.19V84.688ZM2741.23 84.688L2743.9 87.6612L2751.65 80.688H2741.23V84.688ZM2738.35 87.28H2734.35V96.2614L2741.02 90.2532L2738.35 87.28ZM2738.35 0.879997V-3.12H2734.35V0.879997H2738.35ZM2763.4 0.879997H2767.4V-3.12H2763.4V0.879997ZM2763.4 106V110H2767.4V106H2763.4ZM2719.2 106L2715.5 107.541L2716.53 110H2719.2V106ZM2684.2 22.192L2687.9 20.6508L2686.87 18.192H2684.2V22.192ZM2679.16 22.192L2676.49 19.2188L2668.74 26.192H2679.16V22.192ZM2682.04 19.6H2686.04V10.6185L2679.37 16.6268L2682.04 19.6ZM2682.04 106V110H2686.04V106H2682.04ZM2661.28 106V0.879997H2653.28V106H2661.28ZM2657.28 4.88H2701.2V-3.12H2657.28V4.88ZM2697.5 2.42116L2732.5 86.2292L2739.88 83.1468L2704.89 -0.661167L2697.5 2.42116ZM2736.19 88.688H2741.23V80.688H2736.19V88.688ZM2738.55 81.7148L2735.67 84.3068L2741.02 90.2532L2743.9 87.6612L2738.55 81.7148ZM2742.35 87.28V0.879997H2734.35V87.28H2742.35ZM2738.35 4.88H2763.4V-3.12H2738.35V4.88ZM2759.4 0.879997V106H2767.4V0.879997H2759.4ZM2763.4 102H2719.2V110H2763.4V102ZM2722.89 104.459L2687.9 20.6508L2680.51 23.7332L2715.5 107.541L2722.89 104.459ZM2684.2 18.192H2679.16V26.192H2684.2V18.192ZM2681.84 25.1652L2684.72 22.5732L2679.37 16.6268L2676.49 19.2188L2681.84 25.1652ZM2678.04 19.6V106H2686.04V19.6H2678.04ZM2682.04 102H2657.28V110H2682.04V102ZM2806.86 103.264L2804.95 106.781L2804.96 106.787L2804.97 106.792L2806.86 103.264ZM2791.02 87.424L2787.48 89.291L2787.49 89.3013L2787.49 89.3115L2791.02 87.424ZM2785.55 0.879997V-3.12H2781.55V0.879997H2785.55ZM2812.33 0.879997H2816.33V-3.12H2812.33V0.879997ZM2814.63 74.32L2811.06 76.1089L2811.08 76.153L2811.1 76.1966L2814.63 74.32ZM2821.55 81.376L2819.62 84.8832L2821.55 81.376ZM2843.43 81.376L2841.51 77.8688L2843.43 81.376ZM2850.2 74.464L2853.76 76.2986L2853.77 76.2758L2853.78 76.2529L2850.2 74.464ZM2852.51 0.879997V-3.12H2848.51V0.879997H2852.51ZM2879.29 0.879997H2883.29V-3.12H2879.29V0.879997ZM2873.82 87.424L2870.28 85.557L2870.28 85.5662L2870.27 85.5754L2873.82 87.424ZM2857.98 103.264L2856.09 99.7359L2856.08 99.7413L2856.07 99.7468L2857.98 103.264ZM2832.49 104.88C2822.9 104.88 2815.04 103.098 2808.74 99.7359L2804.97 106.792C2812.7 110.918 2821.93 112.88 2832.49 112.88V104.88ZM2808.76 99.7468C2802.53 96.369 2797.82 91.6501 2794.54 85.5365L2787.49 89.3115C2791.52 96.8299 2797.36 102.671 2804.95 106.781L2808.76 99.7468ZM2794.56 85.557C2791.27 79.3265 2789.55 71.8329 2789.55 62.944H2781.55C2781.55 72.8711 2783.47 81.6975 2787.48 89.291L2794.56 85.557ZM2789.55 62.944V0.879997H2781.55V62.944H2789.55ZM2785.55 4.88H2812.33V-3.12H2785.55V4.88ZM2808.33 0.879997V63.52H2816.33V0.879997H2808.33ZM2808.33 63.52C2808.33 68.145 2809.19 72.3802 2811.06 76.1089L2818.21 72.5311C2817 70.1158 2816.33 67.151 2816.33 63.52H2808.33ZM2811.1 76.1966C2813.09 79.9392 2815.95 82.8664 2819.62 84.8832L2823.47 77.8688C2821.2 76.6216 2819.44 74.8447 2818.17 72.4434L2811.1 76.1966ZM2819.62 84.8832C2823.33 86.915 2827.68 87.824 2832.49 87.824V79.824C2828.66 79.824 2825.72 79.101 2823.47 77.8688L2819.62 84.8832ZM2832.49 87.824C2837.3 87.824 2841.65 86.915 2845.36 84.8832L2841.51 77.8688C2839.26 79.101 2836.32 79.824 2832.49 79.824V87.824ZM2845.36 84.8832C2849.02 82.8739 2851.85 79.9921 2853.76 76.2986L2846.65 72.6294C2845.48 74.8879 2843.8 76.6141 2841.51 77.8688L2845.36 84.8832ZM2853.78 76.2529C2855.65 72.5124 2856.51 68.2248 2856.51 63.52H2848.51C2848.51 67.2632 2847.83 70.2716 2846.62 72.6751L2853.78 76.2529ZM2856.51 63.52V0.879997H2848.51V63.52H2856.51ZM2852.51 4.88H2879.29V-3.12H2852.51V4.88ZM2875.29 0.879997V62.944H2883.29V0.879997H2875.29ZM2875.29 62.944C2875.29 71.8329 2873.57 79.3265 2870.28 85.557L2877.36 89.291C2881.36 81.6975 2883.29 72.8711 2883.29 62.944H2875.29ZM2870.27 85.5754C2867.1 91.6518 2862.42 96.358 2856.09 99.7359L2859.86 106.792C2867.56 102.682 2873.43 96.8282 2877.37 89.2726L2870.27 85.5754ZM2856.07 99.7468C2849.89 103.097 2842.09 104.88 2832.49 104.88V112.88C2843.05 112.88 2852.24 110.919 2859.88 106.781L2856.07 99.7468Z" fill="white"/>
</svg>
