<svg width="227" height="114" viewBox="0 0 227 114" fill="none" xmlns="http://www.w3.org/2000/svg">
<path d="M224.756 12.052C226.547 16.5049 225.308 22.0369 221.312 28.3112C217.325 34.5729 210.651 41.4733 201.789 48.5875C184.068 62.8118 157.688 77.8173 126.847 90.2169C96.006 102.616 66.5802 110.048 43.9453 112.048C32.6246 113.049 23.0319 112.688 15.8198 110.929C8.59308 109.167 3.86975 106.032 2.07944 101.579C0.289128 97.1257 1.52796 91.5938 5.52348 85.3195C9.51094 79.0578 16.1843 72.1574 25.047 65.0432C42.7674 50.8189 69.1479 35.8133 99.9888 23.4138C130.83 11.0143 160.255 3.58303 182.89 1.58255C194.211 0.582015 203.804 0.942751 211.016 2.70163C218.243 4.46408 222.966 7.59897 224.756 12.052Z" stroke="white"/>
</svg>
