<svg width="198" height="131" viewBox="0 0 198 131" fill="none" xmlns="http://www.w3.org/2000/svg">
<path d="M127.981 17C128.169 16.8451 128.43 16.6126 128.765 16.3027C129.101 15.9928 129.721 15.2845 130.626 14.1777C131.531 13.071 132.365 11.8867 133.13 10.625C133.612 9.82812 134.071 8.92057 134.507 7.90234C134.943 6.88411 135.305 5.92676 135.593 5.03027C135.882 4.13379 136.136 3.29818 136.357 2.52344C136.579 1.7487 136.736 1.13997 136.83 0.697266L136.991 0C137.018 0.177083 137.065 0.415039 137.132 0.713867C137.199 1.0127 137.353 1.60482 137.594 2.49023C137.836 3.37565 138.094 4.2334 138.369 5.06348C138.644 5.89355 139.006 6.82878 139.455 7.86914C139.904 8.9095 140.37 9.82812 140.852 10.625C141.603 11.8867 142.408 13.0488 143.266 14.1113C144.124 15.1738 144.794 15.9154 145.277 16.3359L145.981 17C145.793 17.1549 145.532 17.3929 145.197 17.7139C144.861 18.0348 144.241 18.7432 143.336 19.8389C142.431 20.9346 141.603 22.1133 140.852 23.375C140.37 24.1719 139.907 25.0794 139.465 26.0977C139.022 27.1159 138.657 28.0732 138.369 28.9697C138.08 29.8662 137.826 30.7018 137.604 31.4766C137.383 32.2513 137.226 32.86 137.132 33.3027L136.991 34C136.951 33.8229 136.897 33.585 136.83 33.2861C136.763 32.9873 136.609 32.3952 136.368 31.5098C136.126 30.6243 135.868 29.7666 135.593 28.9365C135.318 28.1064 134.96 27.1712 134.517 26.1309C134.075 25.0905 133.612 24.1719 133.13 23.375C132.365 22.1133 131.551 20.9512 130.686 19.8887C129.821 18.8262 129.161 18.0791 128.705 17.6475C128.249 17.2158 128.008 17 127.981 17Z" fill="#111111"/>
<path d="M185.336 25.657C186.814 28.8721 185.989 33.0836 182.979 38.0509C179.98 43.0005 174.878 48.5836 168.049 54.4508C154.397 66.1806 133.934 78.9692 109.896 90.0222C85.8578 101.075 62.8294 108.284 45.0383 111.012C36.1393 112.377 28.5798 112.615 22.8701 111.67C17.1399 110.722 13.4058 108.606 11.9275 105.391C10.4492 102.176 11.2742 97.9649 14.2843 92.9975C17.2835 88.048 22.3857 82.4648 29.2144 76.5976C42.8664 64.8679 63.3292 52.0792 87.3674 41.0263C111.406 29.9733 134.434 22.7645 152.225 20.0365C161.124 18.672 168.684 18.4332 174.393 19.3783C180.124 20.3268 183.858 22.442 185.336 25.657Z" stroke="#333333"/>
</svg>
