<svg width="375" height="370" viewBox="0 0 375 370" fill="none" xmlns="http://www.w3.org/2000/svg">
<g clip-path="url(#clip0_73_826)">
<path d="M11.5 370V-2.26498e-06" stroke="white" stroke-opacity="0.5" stroke-width="1.004" stroke-miterlimit="10"/>
<path d="M42.3334 370V-2.26498e-06" stroke="white" stroke-opacity="0.5" stroke-width="1.004" stroke-miterlimit="10"/>
<path d="M73.1666 370V-2.26498e-06" stroke="white" stroke-opacity="0.5" stroke-width="1.004" stroke-miterlimit="10"/>
<path d="M104 370V-2.26498e-06" stroke="white" stroke-opacity="0.5" stroke-width="1.004" stroke-miterlimit="10"/>
<path d="M134.833 370V-2.26498e-06" stroke="white" stroke-opacity="0.5" stroke-width="1.004" stroke-miterlimit="10"/>
<path d="M165.667 370V-2.26498e-06" stroke="white" stroke-opacity="0.5" stroke-width="1.004" stroke-miterlimit="10"/>
<path d="M196.5 370V-2.26498e-06" stroke="white" stroke-opacity="0.5" stroke-width="1.004" stroke-miterlimit="10"/>
<path d="M227.333 370V-2.26498e-06" stroke="white" stroke-opacity="0.5" stroke-width="1.004" stroke-miterlimit="10"/>
<path d="M258.167 370V-2.26498e-06" stroke="white" stroke-opacity="0.5" stroke-width="1.004" stroke-miterlimit="10"/>
<path d="M289 370V-2.26498e-06" stroke="white" stroke-opacity="0.5" stroke-width="1.004" stroke-miterlimit="10"/>
<path d="M319.833 370V-2.26498e-06" stroke="white" stroke-opacity="0.5" stroke-width="1.004" stroke-miterlimit="10"/>
<path d="M350.667 370V-2.26498e-06" stroke="white" stroke-opacity="0.5" stroke-width="1.004" stroke-miterlimit="10"/>
<path d="M-81 370H659" stroke="white" stroke-opacity="0.5" stroke-width="1.004" stroke-miterlimit="10"/>
<path d="M-81 339.167H659" stroke="white" stroke-opacity="0.5" stroke-width="1.004" stroke-miterlimit="10"/>
<path d="M-81 308.333H659" stroke="white" stroke-opacity="0.5" stroke-width="1.004" stroke-miterlimit="10"/>
<path d="M-81 277.5H659" stroke="white" stroke-opacity="0.5" stroke-width="1.004" stroke-miterlimit="10"/>
<path d="M-81 246.667H659" stroke="white" stroke-opacity="0.5" stroke-width="1.004" stroke-miterlimit="10"/>
<path d="M-81 215.833H659" stroke="white" stroke-opacity="0.5" stroke-width="1.004" stroke-miterlimit="10"/>
<path d="M-81 185H659" stroke="white" stroke-opacity="0.5" stroke-width="1.004" stroke-miterlimit="10"/>
<path d="M-81 154.167H659" stroke="white" stroke-opacity="0.5" stroke-width="1.004" stroke-miterlimit="10"/>
<path d="M-81 123.333H659" stroke="white" stroke-opacity="0.5" stroke-width="1.004" stroke-miterlimit="10"/>
<path d="M-81 92.5H659" stroke="white" stroke-opacity="0.5" stroke-width="1.004" stroke-miterlimit="10"/>
<path d="M-81 61.6665H659" stroke="white" stroke-opacity="0.5" stroke-width="1.004" stroke-miterlimit="10"/>
<path d="M-81 30.8335H659" stroke="white" stroke-opacity="0.5" stroke-width="1.004" stroke-miterlimit="10"/>
<path d="M-81 0H659" stroke="white" stroke-opacity="0.5" stroke-width="1.004" stroke-miterlimit="10"/>
</g>
<defs>
<clipPath id="clip0_73_826">
<rect width="740" height="370" fill="white" transform="translate(-81)"/>
</clipPath>
</defs>
</svg>
